<?xml version="1.0" encoding="UTF-8"?>
<svg id="Layer_2" data-name="Layer 2" xmlns="http://www.w3.org/2000/svg" viewBox="0 0 509.17 257.81">
  <defs>
    <style>
      .cls-1 {
        fill: #f3e333;
        stroke-width: 8.97px;
      }

      .cls-1, .cls-2 {
        stroke: #f3e333;
        stroke-linecap: round;
        stroke-linejoin: round;
      }

      .cls-2 {
        fill: #e70f72;
        stroke-width: 7.47px;
      }
    </style>
  </defs>
  <g id="Layer_1-2" data-name="Layer 1">
    <g>
      <g>
        <path class="cls-1" d="m203.09,22.83h-50.35c-17.15,0-31.21,13.2-32.6,29.99-1.39-16.79-15.45-29.99-32.6-29.99h-50.35c-18.07,0-32.72,14.65-32.72,32.72v164.9c0,18.07,14.65,32.72,32.72,32.72h165.97c18.02,0,32.63-14.61,32.63-32.63V55.55c0-18.07-14.65-32.72-32.72-32.72Z"/>
        <path class="cls-1" d="m485.68,178.51c-1.36-6.66-4.9-12.92-10.52-17.63l-50.71-42.45h32.76c16.46,0,29.8-13.32,29.8-29.76v-36.25c0-16.43-13.34-29.76-29.8-29.76h-171.06c-16.46,0-29.8,13.32-29.8,29.76v36.25c0,7.99,3.16,15.24,8.29,20.58.92,1.01,1.92,1.97,3,2.88l54.27,45.43h-35.76c-16.46,0-29.8,13.32-29.8,29.76v36.25c0,16.43,13.34,29.76,29.8,29.76h171.06c16.46,0,29.8-13.32,29.8-29.76v-36.25c0-3.07-.47-6.02-1.33-8.81Z"/>
      </g>
      <g>
        <path class="cls-2" d="m221.52,3.89h-50.35c-17.15,0-31.21,13.2-32.6,29.99-1.39-16.79-15.45-29.99-32.6-29.99h-50.35c-18.07,0-32.72,14.65-32.72,32.72v164.9c0,18.07,14.65,32.72,32.72,32.72h165.97c18.02,0,32.63-14.61,32.63-32.63V36.62c0-18.07-14.65-32.72-32.72-32.72Z"/>
        <path class="cls-2" d="m504.11,159.58c-1.36-6.66-4.9-12.92-10.52-17.63l-50.71-42.45h32.76c16.46,0,29.8-13.32,29.8-29.76v-36.25c0-16.43-13.34-29.76-29.8-29.76h-171.06c-16.46,0-29.8,13.32-29.8,29.76v36.25c0,7.99,3.16,15.24,8.29,20.58.92,1.01,1.92,1.97,3,2.88l54.27,45.43h-35.76c-16.46,0-29.8,13.32-29.8,29.76v36.25c0,16.43,13.34,29.76,29.8,29.76h171.06c16.46,0,29.8-13.32,29.8-29.76v-36.25c0-3.07-.47-6.02-1.33-8.81Z"/>
      </g>
    </g>
  </g>
</svg>