<?xml version="1.0" encoding="UTF-8" standalone="no"?>
<svg
   id="Layer_2"
   data-name="Layer 2"
   viewBox="0 0 509.17 257.81"
   version="1.1"
   sodipodi:docname="MidiScale_Logo_YouTube.svg"
   inkscape:export-filename="MidiScale_Logo_YouTube.png"
   inkscape:export-xdpi="36.491989"
   inkscape:export-ydpi="36.491989"
   inkscape:version="1.2.2 (732a01da63, 2022-12-09)"
   xmlns:inkscape="http://www.inkscape.org/namespaces/inkscape"
   xmlns:sodipodi="http://sodipodi.sourceforge.net/DTD/sodipodi-0.dtd"
   xmlns="http://www.w3.org/2000/svg"
   xmlns:svg="http://www.w3.org/2000/svg">
  <sodipodi:namedview
     id="namedview22"
     pagecolor="#ffffff"
     bordercolor="#000000"
     borderopacity="0.25"
     inkscape:showpageshadow="2"
     inkscape:pageopacity="0.0"
     inkscape:pagecheckerboard="0"
     inkscape:deskcolor="#d1d1d1"
     showgrid="false"
     inkscape:zoom="1.1882082"
     inkscape:cx="360.20622"
     inkscape:cy="93.838771"
     inkscape:window-width="2183"
     inkscape:window-height="1360"
     inkscape:window-x="1248"
     inkscape:window-y="0"
     inkscape:window-maximized="0"
     inkscape:current-layer="Layer_2" />
  <defs
     id="defs4">
    <style
       id="style2">
      .cls-1 {
        stroke-width: 8.97px;
      }

      .cls-1, .cls-2 {
        stroke: #000;
        stroke-linecap: round;
        stroke-linejoin: round;
      }

      .cls-2 {
        fill: #e70f72;
        stroke-width: 7.47px;
      }
    </style>
  </defs>
  <g
     id="Layer_1-2"
     data-name="Layer 1"
     transform="matrix(0.35350262,0,0,0.69816151,165.18487,40.004383)">
    <g
       id="g18">
      <g
         id="g10">
        <path
           class="cls-1"
           d="m 203.09,22.83 h -50.35 c -17.15,0 -31.21,13.2 -32.6,29.99 C 118.75,36.03 104.69,22.83 87.54,22.83 H 37.19 C 19.12,22.83 4.47,37.48 4.47,55.55 v 164.9 c 0,18.07 14.65,32.72 32.72,32.72 h 165.97 c 18.02,0 32.63,-14.61 32.63,-32.63 V 55.55 c 0,-18.07 -14.65,-32.72 -32.72,-32.72 z"
           id="path6" />
        <path
           class="cls-1"
           d="m 485.68,178.51 c -1.36,-6.66 -4.9,-12.92 -10.52,-17.63 l -50.71,-42.45 h 32.76 c 16.46,0 29.8,-13.32 29.8,-29.76 V 52.42 c 0,-16.43 -13.34,-29.76 -29.8,-29.76 H 286.15 c -16.46,0 -29.8,13.32 -29.8,29.76 v 36.25 c 0,7.99 3.16,15.24 8.29,20.58 0.92,1.01 1.92,1.97 3,2.88 l 54.27,45.43 h -35.76 c -16.46,0 -29.8,13.32 -29.8,29.76 v 36.25 c 0,16.43 13.34,29.76 29.8,29.76 h 171.06 c 16.46,0 29.8,-13.32 29.8,-29.76 v -36.25 c 0,-3.07 -0.47,-6.02 -1.33,-8.81 z"
           id="path8" />
      </g>
      <g
         id="g16">
        <path
           class="cls-2"
           d="m 221.52,3.89 h -50.35 c -17.15,0 -31.21,13.2 -32.6,29.99 C 137.18,17.09 123.12,3.89 105.97,3.89 H 55.62 C 37.55,3.89 22.9,18.54 22.9,36.61 v 164.9 c 0,18.07 14.65,32.72 32.72,32.72 h 165.97 c 18.02,0 32.63,-14.61 32.63,-32.63 V 36.62 C 254.22,18.55 239.57,3.9 221.5,3.9 Z"
           id="path12" />
        <path
           class="cls-2"
           d="m 504.11,159.58 c -1.36,-6.66 -4.9,-12.92 -10.52,-17.63 L 442.88,99.5 h 32.76 c 16.46,0 29.8,-13.32 29.8,-29.76 V 33.49 C 505.44,17.06 492.1,3.73 475.64,3.73 H 304.58 c -16.46,0 -29.8,13.32 -29.8,29.76 v 36.25 c 0,7.99 3.16,15.24 8.29,20.58 0.92,1.01 1.92,1.97 3,2.88 l 54.27,45.43 h -35.76 c -16.46,0 -29.8,13.32 -29.8,29.76 v 36.25 c 0,16.43 13.34,29.76 29.8,29.76 h 171.06 c 16.46,0 29.8,-13.32 29.8,-29.76 v -36.25 c 0,-3.07 -0.47,-6.02 -1.33,-8.81 z"
           id="path14" />
      </g>
    </g>
  </g>
</svg>
